<?xml version="1.0" encoding="UTF-8" standalone="no"?>
<svg
   id="Capa_1"
   data-name="Capa 1"
   viewBox="0 0 330.60999 273.85"
   version="1.1"
   sodipodi:docname="logo_uqomm.svg"
   width="330.60999"
   height="273.85001"
   inkscape:version="1.2 (dc2aedaf03, 2022-05-15)"
   xmlns:inkscape="http://www.inkscape.org/namespaces/inkscape"
   xmlns:sodipodi="http://sodipodi.sourceforge.net/DTD/sodipodi-0.dtd"
   xmlns="http://www.w3.org/2000/svg"
   xmlns:svg="http://www.w3.org/2000/svg">
  <sodipodi:namedview
     id="namedview55"
     pagecolor="#ffffff"
     bordercolor="#000000"
     borderopacity="0.25"
     inkscape:showpageshadow="2"
     inkscape:pageopacity="0.0"
     inkscape:pagecheckerboard="0"
     inkscape:deskcolor="#d1d1d1"
     showgrid="false"
     inkscape:zoom="2.0671254"
     inkscape:cx="165.44714"
     inkscape:cy="176.08994"
     inkscape:window-width="1920"
     inkscape:window-height="1009"
     inkscape:window-x="1603"
     inkscape:window-y="1080"
     inkscape:window-maximized="1"
     inkscape:current-layer="Capa_1" />
  <defs
     id="defs40">
    <style
       id="style35">
      .cls-1 {
        fill: #fff;
      }

      .cls-2 {
        clip-path: url(#clippath);
      }

      .cls-3 {
        fill: none;
      }

      .cls-4 {
        fill: #00263d;
      }

      .cls-5 {
        fill: #ff5000;
      }
    </style>
    <clipPath
       id="clippath">
      <rect
         class="cls-3"
         width="566.92999"
         height="401.04001"
         id="rect37"
         x="0"
         y="0" />
    </clipPath>
  </defs>
  <g
     class="cls-2"
     clip-path="url(#clippath)"
     id="g52"
     transform="translate(-118.19,-63.59)">
    <path
       class="cls-5"
       d="m 400.06,299.02 h 6.32 v -38.33 h 0.13 l 15.74,38.33 h 4.22 l 15.74,-38.33 h 0.13 v 38.33 h 6.32 v -46.63 h -9.42 l -14.69,35.31 h -0.26 l -14.82,-35.31 h -9.42 v 46.63 z m -76.14,0 h 6.32 v -38.33 h 0.13 l 15.74,38.33 h 4.21 l 15.74,-38.33 h 0.13 v 38.33 h 6.32 v -46.63 h -9.42 L 348.4,287.7 h -0.26 l -14.82,-35.31 h -9.42 v 46.63 z m -56.64,-6.22 c -2.15,-0.99 -4,-2.32 -5.53,-3.99 -1.54,-1.67 -2.72,-3.63 -3.56,-5.9 -0.83,-2.26 -1.25,-4.66 -1.25,-7.21 0,-2.55 0.42,-4.95 1.25,-7.21 0.83,-2.26 2.02,-4.23 3.56,-5.9 1.54,-1.67 3.38,-3 5.53,-3.98 2.15,-0.99 4.57,-1.48 7.24,-1.48 2.67,0 5.09,0.49 7.24,1.48 2.15,0.99 4,2.32 5.53,3.98 1.54,1.67 2.72,3.63 3.56,5.9 0.83,2.26 1.25,4.67 1.25,7.21 0,2.54 -0.42,4.95 -1.25,7.21 -0.83,2.26 -2.02,4.23 -3.56,5.9 -1.54,1.67 -3.38,3 -5.53,3.99 -2.15,0.99 -4.57,1.48 -7.24,1.48 -2.67,0 -5.09,-0.49 -7.24,-1.48 m 17.06,5.53 c 2.99,-1.25 5.54,-2.97 7.67,-5.17 2.13,-2.2 3.8,-4.79 5.01,-7.77 1.21,-2.99 1.81,-6.21 1.81,-9.68 0,-3.47 -0.6,-6.7 -1.81,-9.68 -1.21,-2.99 -2.88,-5.58 -5.01,-7.77 -2.13,-2.2 -4.69,-3.92 -7.67,-5.17 -2.99,-1.25 -6.26,-1.88 -9.81,-1.88 -3.55,0 -6.83,0.63 -9.81,1.88 -2.99,1.25 -5.54,2.98 -7.67,5.17 -2.13,2.2 -3.8,4.79 -5,7.77 -1.21,2.99 -1.81,6.22 -1.81,9.68 0,3.46 0.6,6.7 1.81,9.68 1.21,2.99 2.88,5.58 5,7.77 2.13,2.2 4.69,3.92 7.67,5.17 2.99,1.25 6.26,1.88 9.81,1.88 3.55,0 6.83,-0.63 9.81,-1.88 m -88.46,-6.68 c -2.11,-0.97 -3.92,-2.28 -5.43,-3.95 -1.51,-1.67 -2.69,-3.62 -3.52,-5.86 -0.83,-2.24 -1.25,-4.63 -1.25,-7.18 0,-2.41 0.44,-4.69 1.32,-6.82 0.88,-2.13 2.08,-3.99 3.62,-5.57 1.54,-1.58 3.35,-2.83 5.43,-3.75 2.08,-0.92 4.36,-1.38 6.82,-1.38 2.46,0 4.81,0.46 6.92,1.38 2.11,0.92 3.93,2.17 5.47,3.75 1.54,1.58 2.73,3.45 3.59,5.6 0.86,2.15 1.29,4.46 1.29,6.92 0,2.46 -0.42,4.94 -1.25,7.18 -0.83,2.24 -2.01,4.18 -3.52,5.83 -1.51,1.65 -3.34,2.94 -5.47,3.89 -2.13,0.94 -4.47,1.42 -7.01,1.42 -2.54,0 -4.87,-0.48 -6.98,-1.45 m 34.12,1.84 H 216.2 v -0.13 c 1.71,-0.79 3.24,-1.84 4.58,-3.16 1.34,-1.32 2.46,-2.81 3.36,-4.48 0.9,-1.67 1.58,-3.46 2.04,-5.37 0.46,-1.91 0.69,-3.85 0.69,-5.83 0,-3.34 -0.62,-6.42 -1.88,-9.25 -1.25,-2.83 -2.95,-5.29 -5.11,-7.38 -2.15,-2.08 -4.67,-3.72 -7.54,-4.91 -2.88,-1.19 -5.96,-1.78 -9.25,-1.78 -3.29,0 -6.6,0.6 -9.52,1.81 -2.92,1.21 -5.47,2.89 -7.64,5.04 -2.17,2.15 -3.88,4.69 -5.1,7.61 -1.23,2.92 -1.84,6.09 -1.84,9.52 0,3.43 0.64,6.66 1.91,9.58 1.27,2.92 3.01,5.43 5.2,7.54 2.2,2.11 4.76,3.75 7.71,4.94 2.94,1.19 6.06,1.78 9.35,1.78 h 26.87 z M 118.19,252.4 v 29.57 c 0,2.72 0.46,5.19 1.38,7.41 0.92,2.22 2.19,4.14 3.82,5.76 1.62,1.62 3.53,2.88 5.73,3.75 2.19,0.88 4.57,1.32 7.11,1.32 2.54,0 4.92,-0.44 7.11,-1.32 2.2,-0.88 4.11,-2.13 5.73,-3.75 1.62,-1.62 2.9,-3.55 3.82,-5.76 0.92,-2.22 1.38,-4.69 1.38,-7.41 V 252.4 h -6.32 v 28.59 c 0,1.45 -0.2,2.95 -0.59,4.51 -0.4,1.56 -1.05,3 -1.98,4.32 -0.92,1.32 -2.13,2.39 -3.62,3.23 -1.49,0.83 -3.34,1.25 -5.53,1.25 -2.19,0 -4.04,-0.42 -5.53,-1.25 -1.49,-0.83 -2.7,-1.91 -3.62,-3.23 -0.92,-1.32 -1.58,-2.76 -1.98,-4.32 -0.39,-1.56 -0.59,-3.06 -0.59,-4.51 V 252.4 Z"
       id="path44" />
    <path
       class="cls-1"
       d="m 448.54,325.26 c -0.32,-0.53 -0.76,-0.9 -1.31,-1.13 -0.55,-0.23 -1.12,-0.34 -1.72,-0.34 -0.41,0 -0.82,0.06 -1.22,0.17 -0.4,0.11 -0.77,0.28 -1.08,0.51 -0.32,0.22 -0.57,0.51 -0.77,0.86 -0.19,0.35 -0.29,0.75 -0.29,1.21 0,0.43 0.08,0.78 0.23,1.07 0.15,0.29 0.35,0.53 0.6,0.71 0.25,0.19 0.54,0.34 0.86,0.45 0.32,0.11 0.67,0.21 1.03,0.3 0.19,0.04 0.4,0.08 0.65,0.14 0.24,0.06 0.47,0.13 0.69,0.23 0.22,0.09 0.4,0.22 0.56,0.39 0.16,0.17 0.23,0.37 0.23,0.62 0,0.19 -0.05,0.35 -0.16,0.5 -0.11,0.15 -0.24,0.26 -0.41,0.36 -0.17,0.1 -0.36,0.16 -0.58,0.21 -0.22,0.04 -0.43,0.07 -0.64,0.07 -0.49,0 -0.9,-0.11 -1.23,-0.32 -0.34,-0.21 -0.64,-0.46 -0.92,-0.73 l -1.27,1.05 c 0.44,0.6 0.93,1.02 1.49,1.24 0.55,0.23 1.2,0.34 1.93,0.34 0.44,0 0.87,-0.05 1.3,-0.15 0.43,-0.1 0.81,-0.26 1.15,-0.49 0.34,-0.23 0.61,-0.52 0.82,-0.88 0.21,-0.36 0.32,-0.79 0.32,-1.29 0,-0.42 -0.07,-0.77 -0.2,-1.05 -0.13,-0.29 -0.31,-0.53 -0.54,-0.73 -0.23,-0.2 -0.51,-0.36 -0.82,-0.49 -0.32,-0.12 -0.66,-0.23 -1.02,-0.32 -0.19,-0.04 -0.41,-0.08 -0.67,-0.13 -0.26,-0.05 -0.51,-0.13 -0.74,-0.23 -0.23,-0.1 -0.43,-0.23 -0.6,-0.4 -0.17,-0.16 -0.25,-0.38 -0.25,-0.64 0,-0.33 0.15,-0.57 0.44,-0.74 0.29,-0.17 0.64,-0.25 1.04,-0.25 0.42,0 0.78,0.08 1.08,0.25 0.29,0.17 0.54,0.38 0.74,0.63 l 1.31,-1 z m -16.6,7.68 h 1.68 v -4.59 c 0,-0.51 0.06,-0.96 0.19,-1.34 0.12,-0.38 0.3,-0.69 0.52,-0.93 0.22,-0.24 0.49,-0.42 0.79,-0.54 0.3,-0.11 0.62,-0.17 0.97,-0.17 0.26,0 0.51,0.04 0.76,0.12 0.24,0.08 0.46,0.21 0.64,0.4 0.19,0.18 0.34,0.42 0.45,0.71 0.11,0.3 0.17,0.65 0.17,1.06 v 5.27 h 1.68 v -5.74 c 0,-0.59 -0.09,-1.1 -0.26,-1.53 -0.18,-0.43 -0.41,-0.79 -0.7,-1.06 -0.29,-0.28 -0.64,-0.48 -1.03,-0.61 -0.39,-0.13 -0.8,-0.2 -1.22,-0.2 -0.69,0 -1.29,0.15 -1.81,0.44 -0.52,0.29 -0.89,0.68 -1.1,1.16 h -0.04 v -1.37 h -1.68 v 8.92 z m -11.35,-2.63 c 0.24,0.57 0.58,1.07 1,1.49 0.42,0.42 0.92,0.75 1.5,1 0.57,0.24 1.19,0.37 1.85,0.37 0.66,0 1.28,-0.12 1.85,-0.37 0.57,-0.24 1.07,-0.58 1.49,-1 0.42,-0.42 0.76,-0.92 1,-1.49 0.24,-0.57 0.36,-1.18 0.36,-1.83 0,-0.65 -0.12,-1.26 -0.36,-1.82 -0.24,-0.57 -0.58,-1.06 -1,-1.49 -0.42,-0.43 -0.92,-0.76 -1.49,-1.01 -0.57,-0.24 -1.19,-0.37 -1.85,-0.37 -0.66,0 -1.28,0.12 -1.85,0.37 -0.57,0.25 -1.07,0.58 -1.5,1.01 -0.42,0.43 -0.76,0.92 -1,1.49 -0.24,0.56 -0.36,1.17 -0.36,1.82 0,0.65 0.12,1.26 0.36,1.83 m 1.64,-3.09 c 0.14,-0.38 0.33,-0.71 0.58,-0.98 0.25,-0.27 0.55,-0.48 0.92,-0.64 0.36,-0.16 0.77,-0.23 1.21,-0.23 0.44,0 0.85,0.08 1.21,0.23 0.36,0.16 0.67,0.37 0.92,0.64 0.25,0.27 0.44,0.6 0.58,0.98 0.14,0.38 0.21,0.8 0.21,1.25 0,0.45 -0.07,0.87 -0.21,1.25 -0.14,0.38 -0.33,0.71 -0.58,0.98 -0.25,0.27 -0.55,0.48 -0.92,0.64 -0.36,0.16 -0.77,0.24 -1.21,0.24 -0.44,0 -0.85,-0.08 -1.21,-0.24 -0.36,-0.16 -0.67,-0.37 -0.92,-0.64 -0.25,-0.27 -0.44,-0.6 -0.58,-0.98 -0.14,-0.38 -0.2,-0.8 -0.2,-1.25 0,-0.45 0.07,-0.87 0.2,-1.25 m -6.14,-5.53 c 0.24,0.24 0.53,0.37 0.87,0.37 0.34,0 0.63,-0.12 0.87,-0.37 0.24,-0.25 0.36,-0.54 0.36,-0.88 0,-0.34 -0.12,-0.63 -0.36,-0.88 -0.24,-0.24 -0.53,-0.37 -0.87,-0.37 -0.34,0 -0.63,0.12 -0.87,0.37 -0.24,0.24 -0.36,0.54 -0.36,0.88 0,0.34 0.12,0.63 0.36,0.88 m 0.03,11.24 h 1.68 v -8.92 h -1.68 z m -2.49,-8.92 h -2.41 v -2.5 h -1.68 v 2.5 h -1.94 v 1.47 h 1.94 v 4.65 c 0,0.36 0.01,0.72 0.05,1.08 0.03,0.36 0.13,0.68 0.3,0.97 0.17,0.29 0.43,0.52 0.79,0.71 0.35,0.18 0.86,0.27 1.51,0.27 0.17,0 0.42,-0.02 0.74,-0.07 0.32,-0.04 0.58,-0.12 0.78,-0.24 v -1.54 c -0.17,0.1 -0.37,0.17 -0.58,0.21 -0.21,0.04 -0.42,0.06 -0.62,0.06 -0.32,0 -0.57,-0.06 -0.74,-0.18 -0.17,-0.12 -0.29,-0.28 -0.37,-0.47 -0.08,-0.19 -0.13,-0.42 -0.14,-0.66 -0.01,-0.25 -0.02,-0.49 -0.02,-0.74 v -4.05 h 2.41 v -1.47 z m -8.95,4.63 v 0.56 c 0,0.3 -0.04,0.61 -0.13,0.91 -0.09,0.31 -0.23,0.59 -0.43,0.84 -0.2,0.25 -0.46,0.46 -0.79,0.61 -0.32,0.16 -0.72,0.24 -1.18,0.24 -0.59,0 -1.05,-0.11 -1.39,-0.34 -0.34,-0.23 -0.51,-0.6 -0.51,-1.11 0,-0.35 0.11,-0.64 0.33,-0.87 0.22,-0.23 0.5,-0.4 0.84,-0.53 0.34,-0.13 0.72,-0.21 1.14,-0.25 0.42,-0.04 0.82,-0.07 1.22,-0.07 h 0.9 z m -4.63,-2.49 c 0.15,-0.11 0.3,-0.23 0.47,-0.36 0.16,-0.12 0.34,-0.24 0.54,-0.33 0.2,-0.1 0.42,-0.17 0.66,-0.24 0.24,-0.06 0.53,-0.09 0.85,-0.09 0.36,0 0.67,0.05 0.94,0.16 0.26,0.11 0.48,0.25 0.65,0.43 0.17,0.18 0.3,0.39 0.39,0.61 0.09,0.22 0.13,0.45 0.13,0.68 v 0.38 h -1.23 c -0.67,0 -1.31,0.05 -1.9,0.16 -0.59,0.11 -1.11,0.28 -1.55,0.53 -0.44,0.24 -0.79,0.56 -1.05,0.95 -0.26,0.39 -0.38,0.87 -0.38,1.45 0,0.44 0.08,0.83 0.24,1.16 0.16,0.33 0.38,0.61 0.66,0.84 0.28,0.23 0.61,0.39 0.98,0.51 0.37,0.11 0.77,0.17 1.18,0.17 0.67,0 1.26,-0.12 1.77,-0.36 0.51,-0.24 0.95,-0.65 1.33,-1.22 h 0.04 c 0,0.45 0.02,0.9 0.06,1.35 h 1.49 c -0.02,-0.24 -0.04,-0.49 -0.06,-0.75 -0.01,-0.26 -0.02,-0.55 -0.02,-0.87 v -4.55 c 0,-0.39 -0.07,-0.76 -0.21,-1.12 -0.14,-0.36 -0.36,-0.67 -0.66,-0.95 -0.3,-0.28 -0.68,-0.5 -1.15,-0.66 -0.47,-0.16 -1.03,-0.24 -1.67,-0.24 -0.64,0 -1.25,0.11 -1.87,0.33 -0.62,0.22 -1.17,0.55 -1.64,0.99 l 1.01,1.05 z m -2.64,-0.94 c -0.44,-0.48 -0.95,-0.83 -1.54,-1.06 -0.59,-0.23 -1.21,-0.35 -1.86,-0.35 -0.7,0 -1.33,0.12 -1.9,0.35 -0.57,0.23 -1.05,0.56 -1.46,0.97 -0.4,0.41 -0.72,0.91 -0.94,1.49 -0.22,0.58 -0.34,1.21 -0.34,1.9 0,0.69 0.11,1.32 0.34,1.89 0.22,0.57 0.54,1.06 0.95,1.47 0.41,0.41 0.9,0.72 1.47,0.95 0.57,0.23 1.19,0.34 1.88,0.34 0.65,0 1.26,-0.11 1.84,-0.32 0.58,-0.21 1.09,-0.57 1.52,-1.05 l -1.2,-1.21 c -0.29,0.33 -0.6,0.57 -0.93,0.74 -0.34,0.17 -0.74,0.25 -1.21,0.25 -0.44,0 -0.83,-0.08 -1.18,-0.24 -0.35,-0.16 -0.65,-0.37 -0.9,-0.65 -0.25,-0.28 -0.44,-0.6 -0.58,-0.97 -0.14,-0.37 -0.21,-0.76 -0.21,-1.18 0,-0.42 0.06,-0.81 0.18,-1.19 0.12,-0.38 0.29,-0.72 0.52,-1.02 0.23,-0.29 0.52,-0.53 0.86,-0.7 0.34,-0.17 0.74,-0.25 1.21,-0.25 0.47,0 0.88,0.08 1.22,0.25 0.34,0.17 0.67,0.42 0.98,0.74 l 1.27,-1.17 z m -12.18,-3.53 c 0.24,0.24 0.53,0.37 0.87,0.37 0.34,0 0.63,-0.12 0.87,-0.37 0.24,-0.25 0.36,-0.54 0.36,-0.88 0,-0.34 -0.12,-0.63 -0.36,-0.88 -0.24,-0.24 -0.53,-0.37 -0.87,-0.37 -0.34,0 -0.63,0.12 -0.87,0.37 -0.24,0.24 -0.36,0.54 -0.36,0.88 0,0.34 0.12,0.63 0.36,0.88 m 0.03,11.24 h 1.68 V 324 h -1.68 z m -10.71,0 h 1.68 v -4.59 c 0,-0.51 0.06,-0.96 0.19,-1.34 0.12,-0.38 0.3,-0.69 0.52,-0.93 0.23,-0.24 0.49,-0.42 0.79,-0.54 0.3,-0.12 0.62,-0.17 0.97,-0.17 0.26,0 0.51,0.04 0.76,0.12 0.24,0.08 0.46,0.21 0.64,0.4 0.19,0.18 0.34,0.42 0.45,0.71 0.11,0.3 0.17,0.65 0.17,1.06 v 5.27 h 1.68 v -5.74 c 0,-0.59 -0.09,-1.1 -0.26,-1.53 -0.17,-0.43 -0.41,-0.79 -0.7,-1.06 -0.29,-0.28 -0.63,-0.48 -1.03,-0.61 -0.39,-0.13 -0.8,-0.2 -1.22,-0.2 -0.68,0 -1.29,0.15 -1.81,0.44 -0.52,0.29 -0.89,0.68 -1.1,1.16 h -0.04 V 324 h -1.68 v 8.92 z M 371.82,324 h -1.68 v 4.59 c 0,0.51 -0.06,0.96 -0.19,1.34 -0.12,0.38 -0.3,0.69 -0.52,0.93 -0.22,0.25 -0.49,0.42 -0.79,0.54 -0.3,0.11 -0.62,0.17 -0.97,0.17 -0.26,0 -0.51,-0.04 -0.76,-0.12 -0.24,-0.08 -0.46,-0.21 -0.64,-0.4 -0.19,-0.18 -0.34,-0.42 -0.45,-0.71 -0.11,-0.29 -0.17,-0.65 -0.17,-1.06 v -5.27 h -1.68 v 5.74 c 0,0.59 0.09,1.1 0.26,1.53 0.17,0.43 0.41,0.79 0.7,1.06 0.29,0.28 0.63,0.48 1.02,0.61 0.39,0.13 0.8,0.2 1.23,0.2 0.68,0 1.29,-0.15 1.81,-0.44 0.52,-0.29 0.89,-0.68 1.1,-1.16 h 0.04 v 1.37 h 1.68 V 324 Z m -23.96,8.92 h 1.68 v -4.63 c 0,-0.5 0.06,-0.94 0.19,-1.31 0.12,-0.37 0.29,-0.67 0.5,-0.91 0.21,-0.24 0.46,-0.42 0.74,-0.54 0.28,-0.12 0.57,-0.18 0.87,-0.18 0.41,0 0.74,0.07 0.98,0.22 0.24,0.15 0.43,0.35 0.56,0.6 0.13,0.26 0.22,0.56 0.26,0.91 0.04,0.35 0.07,0.74 0.07,1.17 v 4.67 h 1.68 v -4.88 c 0,-0.79 0.17,-1.44 0.52,-1.94 0.35,-0.5 0.93,-0.75 1.74,-0.75 0.41,0 0.74,0.07 0.99,0.22 0.25,0.15 0.44,0.34 0.58,0.57 0.14,0.24 0.23,0.52 0.27,0.83 0.04,0.31 0.07,0.64 0.07,0.98 v 4.97 h 1.68 v -5.19 c 0,-0.5 -0.05,-0.99 -0.14,-1.46 -0.09,-0.47 -0.27,-0.89 -0.51,-1.26 -0.25,-0.37 -0.59,-0.67 -1.03,-0.89 -0.44,-0.23 -1,-0.34 -1.68,-0.34 -0.54,0 -1.07,0.14 -1.59,0.41 -0.52,0.28 -0.93,0.69 -1.21,1.24 -0.29,-0.55 -0.65,-0.97 -1.1,-1.24 -0.45,-0.28 -1,-0.41 -1.66,-0.41 -0.4,0 -0.76,0.06 -1.09,0.18 -0.33,0.12 -0.62,0.26 -0.86,0.43 -0.24,0.17 -0.44,0.35 -0.6,0.54 -0.16,0.19 -0.25,0.35 -0.29,0.47 h -0.04 v -1.39 h -1.57 v 8.92 z m -16.11,0 h 1.68 v -4.63 c 0,-0.5 0.06,-0.94 0.19,-1.31 0.12,-0.37 0.29,-0.67 0.5,-0.91 0.21,-0.24 0.46,-0.42 0.74,-0.54 0.28,-0.12 0.57,-0.18 0.87,-0.18 0.41,0 0.74,0.07 0.98,0.22 0.24,0.15 0.43,0.35 0.56,0.6 0.13,0.26 0.22,0.56 0.26,0.91 0.04,0.35 0.07,0.74 0.07,1.17 v 4.67 h 1.68 v -4.88 c 0,-0.79 0.17,-1.44 0.52,-1.94 0.35,-0.5 0.93,-0.75 1.74,-0.75 0.41,0 0.74,0.07 0.99,0.22 0.25,0.15 0.44,0.34 0.58,0.57 0.14,0.24 0.23,0.52 0.27,0.83 0.04,0.31 0.07,0.64 0.07,0.98 v 4.97 h 1.68 v -5.19 c 0,-0.5 -0.05,-0.99 -0.14,-1.46 -0.09,-0.47 -0.26,-0.89 -0.51,-1.26 -0.25,-0.37 -0.59,-0.67 -1.03,-0.89 -0.44,-0.22 -1,-0.34 -1.68,-0.34 -0.54,0 -1.07,0.14 -1.59,0.41 -0.52,0.28 -0.93,0.69 -1.21,1.24 -0.29,-0.55 -0.65,-0.97 -1.1,-1.24 -0.45,-0.28 -1,-0.41 -1.66,-0.41 -0.4,0 -0.76,0.06 -1.09,0.18 -0.33,0.12 -0.62,0.26 -0.86,0.43 -0.24,0.17 -0.44,0.35 -0.6,0.54 -0.16,0.19 -0.25,0.35 -0.29,0.47 h -0.04 v -1.39 h -1.57 v 8.92 z m -11.35,-2.63 c 0.24,0.57 0.58,1.07 1,1.49 0.42,0.42 0.92,0.75 1.5,1 0.57,0.24 1.19,0.37 1.85,0.37 0.66,0 1.28,-0.12 1.85,-0.37 0.57,-0.24 1.07,-0.58 1.5,-1 0.42,-0.42 0.76,-0.92 1,-1.49 0.24,-0.57 0.36,-1.18 0.36,-1.83 0,-0.65 -0.12,-1.26 -0.36,-1.82 -0.24,-0.57 -0.58,-1.06 -1,-1.49 -0.42,-0.43 -0.92,-0.76 -1.5,-1.01 -0.57,-0.24 -1.19,-0.37 -1.85,-0.37 -0.66,0 -1.28,0.12 -1.85,0.37 -0.57,0.25 -1.07,0.58 -1.5,1.01 -0.42,0.43 -0.76,0.92 -1,1.49 -0.24,0.56 -0.36,1.17 -0.36,1.82 0,0.65 0.12,1.26 0.36,1.83 m 1.64,-3.09 c 0.14,-0.38 0.33,-0.71 0.58,-0.98 0.25,-0.27 0.55,-0.48 0.91,-0.64 0.36,-0.16 0.77,-0.23 1.21,-0.23 0.44,0 0.85,0.08 1.21,0.23 0.36,0.16 0.67,0.37 0.92,0.64 0.25,0.27 0.44,0.6 0.58,0.98 0.14,0.38 0.21,0.8 0.21,1.25 0,0.45 -0.07,0.87 -0.21,1.25 -0.14,0.38 -0.33,0.71 -0.58,0.98 -0.25,0.27 -0.55,0.48 -0.92,0.64 -0.36,0.16 -0.77,0.24 -1.21,0.24 -0.44,0 -0.85,-0.08 -1.21,-0.24 -0.36,-0.16 -0.67,-0.37 -0.91,-0.64 -0.25,-0.27 -0.44,-0.6 -0.58,-0.98 -0.14,-0.38 -0.2,-0.8 -0.2,-1.25 0,-0.45 0.07,-0.87 0.2,-1.25 m -3.77,-5.88 c -0.54,-0.7 -1.22,-1.22 -2.07,-1.56 -0.84,-0.34 -1.7,-0.51 -2.57,-0.51 -1.02,0 -1.96,0.18 -2.8,0.53 -0.85,0.35 -1.57,0.84 -2.18,1.48 -0.6,0.63 -1.07,1.39 -1.41,2.26 -0.34,0.87 -0.5,1.82 -0.5,2.85 0,0.84 0.15,1.67 0.47,2.49 0.31,0.82 0.76,1.56 1.35,2.21 0.59,0.65 1.31,1.18 2.15,1.58 0.84,0.4 1.79,0.6 2.83,0.6 0.76,0 1.43,-0.1 2.01,-0.29 0.58,-0.19 1.07,-0.42 1.49,-0.68 0.41,-0.26 0.74,-0.51 0.99,-0.77 0.25,-0.26 0.42,-0.45 0.52,-0.59 l -1.51,-1.15 c -0.4,0.57 -0.89,1 -1.46,1.32 -0.57,0.31 -1.24,0.47 -2,0.47 -0.76,0 -1.46,-0.14 -2.07,-0.41 -0.61,-0.28 -1.13,-0.65 -1.55,-1.13 -0.42,-0.48 -0.75,-1.03 -0.97,-1.66 -0.22,-0.63 -0.34,-1.29 -0.34,-1.99 0,-0.75 0.12,-1.46 0.36,-2.12 0.24,-0.66 0.57,-1.23 1,-1.72 0.43,-0.49 0.95,-0.88 1.55,-1.16 0.6,-0.28 1.28,-0.42 2.03,-0.42 0.61,0 1.2,0.13 1.78,0.4 0.57,0.26 1.05,0.64 1.42,1.13 l 1.49,-1.15 z m -25.06,10 c -0.36,-0.16 -0.67,-0.37 -0.92,-0.64 -0.25,-0.27 -0.44,-0.6 -0.58,-0.98 -0.14,-0.38 -0.21,-0.8 -0.21,-1.25 0,-0.45 0.07,-0.87 0.21,-1.25 0.14,-0.38 0.33,-0.71 0.58,-0.98 0.25,-0.27 0.55,-0.48 0.92,-0.64 0.36,-0.16 0.77,-0.23 1.21,-0.23 0.44,0 0.85,0.08 1.21,0.23 0.36,0.16 0.67,0.37 0.92,0.64 0.25,0.27 0.44,0.6 0.58,0.98 0.14,0.38 0.21,0.8 0.21,1.25 0,0.45 -0.07,0.87 -0.21,1.25 -0.14,0.38 -0.33,0.71 -0.58,0.98 -0.25,0.27 -0.55,0.48 -0.92,0.64 -0.36,0.16 -0.77,0.24 -1.21,0.24 -0.44,0 -0.85,-0.08 -1.21,-0.24 m 5.81,-12.64 h -1.68 v 6.59 h -0.04 c -0.3,-0.46 -0.73,-0.83 -1.29,-1.1 -0.56,-0.27 -1.16,-0.4 -1.79,-0.4 -0.68,0 -1.3,0.12 -1.86,0.36 -0.55,0.24 -1.03,0.57 -1.42,0.99 -0.39,0.42 -0.7,0.92 -0.91,1.49 -0.21,0.57 -0.32,1.19 -0.32,1.85 0,0.66 0.11,1.28 0.32,1.85 0.21,0.56 0.51,1.06 0.91,1.49 0.39,0.43 0.87,0.76 1.42,1 0.55,0.24 1.17,0.36 1.86,0.36 0.6,0 1.18,-0.13 1.75,-0.4 0.57,-0.26 1.01,-0.63 1.34,-1.11 h 0.04 v 1.28 h 1.68 V 318.7 Z m -19.46,14.23 h 1.68 v -4.59 c 0,-0.51 0.06,-0.96 0.19,-1.34 0.12,-0.38 0.3,-0.69 0.52,-0.93 0.22,-0.24 0.49,-0.42 0.78,-0.54 0.3,-0.11 0.62,-0.17 0.97,-0.17 0.26,0 0.51,0.04 0.76,0.12 0.24,0.08 0.46,0.21 0.65,0.4 0.19,0.18 0.34,0.42 0.45,0.71 0.11,0.3 0.17,0.65 0.17,1.06 v 5.27 h 1.68 v -5.74 c 0,-0.59 -0.09,-1.1 -0.26,-1.53 -0.17,-0.43 -0.41,-0.79 -0.7,-1.06 -0.29,-0.28 -0.64,-0.48 -1.03,-0.61 -0.39,-0.13 -0.8,-0.2 -1.22,-0.2 -0.68,0 -1.29,0.15 -1.81,0.44 -0.52,0.29 -0.89,0.68 -1.1,1.16 h -0.04 v -1.37 h -1.68 v 8.92 z m -2.73,-8.92 h -1.68 v 4.59 c 0,0.51 -0.06,0.96 -0.19,1.34 -0.12,0.38 -0.3,0.69 -0.52,0.93 -0.22,0.25 -0.49,0.42 -0.79,0.54 -0.3,0.11 -0.62,0.17 -0.97,0.17 -0.26,0 -0.51,-0.04 -0.76,-0.12 -0.24,-0.08 -0.46,-0.21 -0.65,-0.4 -0.19,-0.18 -0.34,-0.42 -0.45,-0.71 -0.11,-0.29 -0.17,-0.65 -0.17,-1.06 V 324 h -1.68 v 5.74 c 0,0.59 0.09,1.1 0.26,1.53 0.17,0.43 0.41,0.79 0.7,1.06 0.29,0.28 0.63,0.48 1.02,0.61 0.39,0.13 0.8,0.2 1.23,0.2 0.68,0 1.29,-0.15 1.81,-0.44 0.52,-0.29 0.89,-0.68 1.1,-1.16 h 0.04 v 1.37 h 1.68 v -8.92 z m -19.2,6.29 c 0.24,0.57 0.58,1.07 1,1.49 0.42,0.42 0.92,0.75 1.49,1 0.57,0.24 1.19,0.37 1.85,0.37 0.66,0 1.28,-0.12 1.85,-0.37 0.57,-0.24 1.07,-0.58 1.5,-1 0.42,-0.42 0.76,-0.92 1,-1.49 0.24,-0.57 0.36,-1.18 0.36,-1.83 0,-0.65 -0.12,-1.26 -0.36,-1.82 -0.24,-0.57 -0.58,-1.06 -1,-1.49 -0.42,-0.43 -0.92,-0.76 -1.5,-1.01 -0.57,-0.24 -1.19,-0.37 -1.85,-0.37 -0.66,0 -1.28,0.12 -1.85,0.37 -0.57,0.25 -1.07,0.58 -1.49,1.01 -0.42,0.43 -0.76,0.92 -1,1.49 -0.24,0.56 -0.36,1.17 -0.36,1.82 0,0.65 0.12,1.26 0.36,1.83 m 1.64,-3.09 c 0.14,-0.38 0.33,-0.71 0.58,-0.98 0.25,-0.27 0.55,-0.48 0.92,-0.64 0.36,-0.16 0.77,-0.23 1.22,-0.23 0.45,0 0.85,0.08 1.21,0.23 0.36,0.16 0.67,0.37 0.91,0.64 0.25,0.27 0.44,0.6 0.58,0.98 0.14,0.38 0.2,0.8 0.2,1.25 0,0.45 -0.07,0.87 -0.2,1.25 -0.14,0.38 -0.33,0.71 -0.58,0.98 -0.25,0.27 -0.55,0.48 -0.91,0.64 -0.36,0.16 -0.77,0.24 -1.21,0.24 -0.44,0 -0.85,-0.08 -1.22,-0.24 -0.36,-0.16 -0.67,-0.37 -0.92,-0.64 -0.25,-0.27 -0.44,-0.6 -0.58,-0.98 -0.14,-0.38 -0.21,-0.8 -0.21,-1.25 0,-0.45 0.07,-0.87 0.21,-1.25 m -8.34,5.71 h 1.68 v -4.48 c 0,-0.98 0.22,-1.7 0.65,-2.17 0.44,-0.46 1.07,-0.7 1.89,-0.7 0.14,0 0.27,0.01 0.41,0.04 0.14,0.02 0.27,0.06 0.41,0.09 l 0.07,-1.83 c -0.22,-0.08 -0.47,-0.11 -0.75,-0.11 -0.28,0 -0.55,0.04 -0.82,0.12 -0.27,0.08 -0.53,0.19 -0.76,0.33 -0.23,0.14 -0.44,0.3 -0.63,0.5 -0.19,0.19 -0.34,0.41 -0.45,0.65 h -0.04 v -1.37 h -1.68 v 8.92 z m -6.11,-7.33 c 0.36,0.16 0.67,0.37 0.92,0.64 0.25,0.27 0.44,0.6 0.58,0.98 0.14,0.38 0.21,0.8 0.21,1.25 0,0.9 -0.26,1.63 -0.79,2.17 -0.52,0.55 -1.23,0.82 -2.13,0.82 -0.9,0 -1.61,-0.27 -2.13,-0.82 -0.52,-0.55 -0.79,-1.27 -0.79,-2.17 0,-0.45 0.07,-0.87 0.21,-1.25 0.14,-0.38 0.33,-0.71 0.58,-0.98 0.25,-0.27 0.55,-0.48 0.92,-0.64 0.36,-0.16 0.77,-0.23 1.21,-0.23 0.44,0 0.85,0.08 1.21,0.23 m 3.38,-1.59 h -1.68 v 1.28 h -0.04 c -0.32,-0.48 -0.77,-0.85 -1.34,-1.11 -0.57,-0.26 -1.15,-0.39 -1.75,-0.39 -0.68,0 -1.31,0.12 -1.86,0.36 -0.55,0.24 -1.03,0.57 -1.42,1 -0.39,0.43 -0.69,0.93 -0.91,1.5 -0.21,0.57 -0.32,1.18 -0.32,1.83 0,0.65 0.11,1.26 0.34,1.82 0.22,0.56 0.54,1.04 0.93,1.45 0.4,0.41 0.88,0.73 1.43,0.96 0.55,0.23 1.15,0.35 1.8,0.35 0.61,0 1.19,-0.13 1.75,-0.39 0.55,-0.26 0.99,-0.65 1.32,-1.19 h 0.06 v 1.32 c 0,0.38 -0.05,0.75 -0.15,1.12 -0.1,0.37 -0.27,0.7 -0.51,0.99 -0.24,0.29 -0.57,0.52 -0.98,0.71 -0.41,0.18 -0.93,0.27 -1.55,0.27 -0.62,0 -1.23,-0.12 -1.74,-0.37 -0.51,-0.24 -0.98,-0.61 -1.42,-1.08 l -1.14,1.43 c 0.63,0.59 1.3,1 2.01,1.24 0.7,0.24 1.48,0.36 2.33,0.36 0.72,0 1.38,-0.11 1.98,-0.34 0.6,-0.23 1.11,-0.54 1.53,-0.95 0.42,-0.41 0.75,-0.89 0.98,-1.45 0.23,-0.56 0.35,-1.18 0.35,-1.85 V 324 Z m -15.64,8.92 h 1.68 v -4.48 c 0,-0.98 0.22,-1.7 0.65,-2.17 0.44,-0.46 1.07,-0.7 1.89,-0.7 0.14,0 0.27,0.01 0.41,0.04 0.14,0.02 0.27,0.06 0.41,0.09 l 0.07,-1.83 c -0.22,-0.08 -0.47,-0.11 -0.75,-0.11 -0.28,0 -0.55,0.04 -0.82,0.12 -0.27,0.08 -0.53,0.19 -0.76,0.33 -0.23,0.14 -0.44,0.3 -0.63,0.5 -0.19,0.19 -0.34,0.41 -0.45,0.65 h -0.04 v -1.37 h -1.68 v 8.92 z m -9.31,-5.19 c 0,-0.3 0.07,-0.6 0.2,-0.91 0.13,-0.31 0.32,-0.59 0.55,-0.84 0.24,-0.25 0.53,-0.45 0.87,-0.61 0.34,-0.16 0.72,-0.24 1.13,-0.24 0.41,0 0.79,0.07 1.11,0.2 0.32,0.13 0.58,0.31 0.79,0.55 0.21,0.23 0.37,0.5 0.48,0.82 0.11,0.31 0.16,0.66 0.18,1.03 z m 7.1,1.36 v -0.6 c 0,-0.58 -0.08,-1.14 -0.23,-1.7 -0.16,-0.56 -0.41,-1.06 -0.76,-1.51 -0.35,-0.44 -0.79,-0.81 -1.34,-1.08 -0.54,-0.28 -1.21,-0.41 -1.99,-0.41 -0.66,0 -1.27,0.12 -1.83,0.36 -0.56,0.24 -1.04,0.57 -1.45,0.99 -0.4,0.42 -0.72,0.92 -0.95,1.49 -0.23,0.57 -0.35,1.19 -0.35,1.85 0,0.66 0.11,1.28 0.32,1.85 0.21,0.57 0.51,1.07 0.91,1.49 0.39,0.42 0.87,0.75 1.44,0.99 0.57,0.24 1.2,0.36 1.9,0.36 1.68,0 2.99,-0.61 3.92,-1.83 l -1.27,-0.98 c -0.32,0.4 -0.68,0.72 -1.07,0.97 -0.39,0.24 -0.84,0.37 -1.36,0.37 -0.39,0 -0.76,-0.06 -1.12,-0.19 -0.36,-0.13 -0.68,-0.3 -0.95,-0.53 -0.27,-0.23 -0.49,-0.5 -0.66,-0.82 -0.17,-0.32 -0.25,-0.67 -0.25,-1.06 h 7.1 z m -16.91,2.25 c -0.36,-0.16 -0.67,-0.37 -0.92,-0.64 -0.25,-0.27 -0.44,-0.6 -0.58,-0.98 -0.14,-0.38 -0.21,-0.8 -0.21,-1.25 0,-0.45 0.07,-0.87 0.21,-1.25 0.14,-0.38 0.33,-0.71 0.58,-0.98 0.25,-0.27 0.55,-0.48 0.92,-0.64 0.36,-0.16 0.77,-0.23 1.21,-0.23 0.44,0 0.85,0.08 1.21,0.23 0.36,0.16 0.67,0.37 0.92,0.64 0.25,0.27 0.44,0.6 0.58,0.98 0.14,0.38 0.21,0.8 0.21,1.25 0,0.45 -0.07,0.87 -0.21,1.25 -0.14,0.38 -0.33,0.71 -0.58,0.98 -0.25,0.27 -0.55,0.48 -0.92,0.64 -0.36,0.16 -0.77,0.24 -1.21,0.24 -0.44,0 -0.85,-0.08 -1.21,-0.24 m 5.81,-12.64 h -1.68 v 6.59 h -0.04 c -0.3,-0.46 -0.73,-0.83 -1.29,-1.1 -0.56,-0.27 -1.16,-0.4 -1.79,-0.4 -0.69,0 -1.31,0.12 -1.86,0.36 -0.55,0.24 -1.03,0.57 -1.42,0.99 -0.39,0.42 -0.69,0.92 -0.91,1.49 -0.21,0.57 -0.32,1.19 -0.32,1.85 0,0.66 0.11,1.28 0.32,1.85 0.21,0.56 0.51,1.06 0.91,1.49 0.39,0.43 0.87,0.76 1.42,1 0.55,0.24 1.17,0.36 1.86,0.36 0.6,0 1.18,-0.13 1.75,-0.4 0.57,-0.26 1.01,-0.63 1.34,-1.11 h 0.04 v 1.28 h 1.68 V 318.7 Z m -19.46,14.23 h 1.68 v -4.59 c 0,-0.51 0.06,-0.96 0.19,-1.34 0.12,-0.38 0.3,-0.69 0.52,-0.93 0.22,-0.24 0.49,-0.42 0.79,-0.54 0.3,-0.12 0.62,-0.17 0.97,-0.17 0.26,0 0.51,0.04 0.76,0.12 0.24,0.08 0.46,0.21 0.64,0.4 0.19,0.18 0.34,0.42 0.45,0.71 0.11,0.3 0.17,0.65 0.17,1.06 v 5.27 h 1.68 v -5.74 c 0,-0.59 -0.09,-1.1 -0.26,-1.53 -0.18,-0.43 -0.41,-0.79 -0.7,-1.06 -0.29,-0.28 -0.63,-0.48 -1.03,-0.61 -0.39,-0.13 -0.8,-0.2 -1.22,-0.2 -0.68,0 -1.29,0.15 -1.81,0.44 -0.52,0.29 -0.89,0.68 -1.1,1.16 h -0.04 v -1.37 h -1.68 v 8.92 z m -13.16,-13.32 v 8.45 c 0,0.78 0.13,1.48 0.39,2.12 0.26,0.63 0.62,1.18 1.08,1.65 0.46,0.46 1,0.82 1.63,1.07 0.62,0.25 1.3,0.38 2.02,0.38 0.72,0 1.39,-0.13 2.02,-0.38 0.63,-0.25 1.17,-0.61 1.63,-1.07 0.46,-0.46 0.82,-1.01 1.08,-1.65 0.26,-0.63 0.39,-1.34 0.39,-2.12 v -8.45 h -1.79 v 8.17 c 0,0.41 -0.06,0.84 -0.17,1.29 -0.11,0.45 -0.3,0.86 -0.56,1.23 -0.26,0.38 -0.6,0.68 -1.03,0.92 -0.42,0.24 -0.95,0.36 -1.57,0.36 -0.62,0 -1.15,-0.12 -1.57,-0.36 -0.42,-0.24 -0.77,-0.55 -1.03,-0.92 -0.26,-0.38 -0.45,-0.79 -0.56,-1.23 -0.11,-0.44 -0.17,-0.88 -0.17,-1.29 v -8.17 z m -12.48,13.38 -0.54,1.41 c -0.09,0.23 -0.17,0.43 -0.26,0.6 -0.09,0.18 -0.2,0.33 -0.32,0.46 -0.13,0.13 -0.29,0.23 -0.46,0.3 -0.18,0.07 -0.4,0.1 -0.66,0.1 -0.34,0 -0.67,-0.07 -1,-0.21 l -0.2,1.54 c 0.24,0.1 0.48,0.17 0.74,0.2 0.25,0.03 0.51,0.05 0.75,0.05 0.46,0 0.85,-0.06 1.16,-0.19 0.32,-0.13 0.59,-0.3 0.81,-0.53 0.22,-0.23 0.42,-0.5 0.58,-0.82 0.16,-0.32 0.32,-0.68 0.47,-1.06 l 4.21,-10.84 h -1.79 l -2.52,6.96 h -0.04 l -2.62,-6.96 h -1.94 l 3.67,8.98 z m -4.97,-8.98 h -2.41 v -2.5 h -1.68 v 2.5 h -1.94 v 1.47 h 1.94 v 4.65 c 0,0.36 0.01,0.72 0.05,1.08 0.03,0.36 0.13,0.68 0.3,0.97 0.17,0.29 0.43,0.52 0.78,0.71 0.36,0.18 0.86,0.27 1.51,0.27 0.17,0 0.42,-0.02 0.74,-0.07 0.32,-0.04 0.58,-0.12 0.78,-0.24 v -1.54 c -0.17,0.1 -0.37,0.17 -0.58,0.21 -0.21,0.04 -0.42,0.06 -0.62,0.06 -0.32,0 -0.57,-0.06 -0.74,-0.18 -0.17,-0.12 -0.29,-0.28 -0.37,-0.47 -0.08,-0.19 -0.13,-0.42 -0.14,-0.66 -0.01,-0.25 -0.02,-0.49 -0.02,-0.74 v -4.05 h 2.41 v -1.47 z m -9.32,-2.32 c 0.24,0.24 0.53,0.37 0.87,0.37 0.34,0 0.63,-0.12 0.87,-0.37 0.24,-0.25 0.37,-0.54 0.37,-0.88 0,-0.34 -0.12,-0.63 -0.37,-0.88 -0.24,-0.24 -0.53,-0.37 -0.87,-0.37 -0.34,0 -0.63,0.12 -0.87,0.37 -0.24,0.24 -0.36,0.54 -0.36,0.88 0,0.34 0.12,0.63 0.36,0.88 m 0.03,11.24 h 1.68 v -8.92 h -1.68 z m -4.67,0 h 1.68 v -14.23 h -1.68 z m -4.34,-4.29 v 0.56 c 0,0.3 -0.04,0.61 -0.13,0.91 -0.09,0.31 -0.23,0.59 -0.43,0.84 -0.2,0.25 -0.46,0.46 -0.79,0.61 -0.32,0.16 -0.72,0.24 -1.18,0.24 -0.59,0 -1.05,-0.11 -1.39,-0.34 -0.34,-0.23 -0.51,-0.6 -0.51,-1.11 0,-0.35 0.11,-0.64 0.33,-0.87 0.22,-0.23 0.5,-0.4 0.84,-0.53 0.34,-0.13 0.72,-0.21 1.14,-0.25 0.42,-0.04 0.82,-0.07 1.22,-0.07 h 0.9 z m -4.63,-2.49 c 0.15,-0.11 0.3,-0.23 0.47,-0.36 0.17,-0.13 0.34,-0.24 0.54,-0.33 0.2,-0.1 0.42,-0.17 0.66,-0.24 0.24,-0.06 0.53,-0.09 0.85,-0.09 0.36,0 0.67,0.05 0.93,0.16 0.26,0.11 0.48,0.25 0.65,0.43 0.17,0.18 0.3,0.39 0.39,0.61 0.09,0.22 0.13,0.45 0.13,0.68 v 0.38 h -1.23 c -0.67,0 -1.31,0.05 -1.9,0.16 -0.59,0.11 -1.11,0.28 -1.55,0.53 -0.44,0.24 -0.79,0.56 -1.05,0.95 -0.26,0.39 -0.38,0.87 -0.38,1.45 0,0.44 0.08,0.83 0.24,1.16 0.16,0.33 0.38,0.61 0.66,0.84 0.28,0.23 0.61,0.39 0.98,0.51 0.37,0.11 0.77,0.17 1.18,0.17 0.67,0 1.26,-0.12 1.78,-0.36 0.52,-0.24 0.95,-0.65 1.33,-1.22 h 0.04 c 0,0.45 0.02,0.9 0.06,1.35 h 1.49 c -0.03,-0.24 -0.04,-0.49 -0.06,-0.75 -0.01,-0.26 -0.02,-0.55 -0.02,-0.87 v -4.55 c 0,-0.39 -0.07,-0.76 -0.22,-1.12 -0.14,-0.36 -0.36,-0.67 -0.66,-0.95 -0.3,-0.28 -0.68,-0.5 -1.15,-0.66 -0.47,-0.16 -1.03,-0.24 -1.67,-0.24 -0.64,0 -1.25,0.11 -1.87,0.33 -0.62,0.22 -1.17,0.55 -1.65,0.99 l 1.01,1.05 z m -3.78,-2.14 h -1.68 v 4.59 c 0,0.51 -0.06,0.96 -0.19,1.34 -0.12,0.38 -0.3,0.69 -0.52,0.93 -0.22,0.25 -0.49,0.42 -0.79,0.54 -0.3,0.11 -0.62,0.17 -0.97,0.17 -0.26,0 -0.51,-0.04 -0.76,-0.12 -0.24,-0.08 -0.46,-0.21 -0.65,-0.4 -0.19,-0.18 -0.34,-0.42 -0.45,-0.71 -0.11,-0.29 -0.17,-0.65 -0.17,-1.06 V 324 h -1.68 v 5.74 c 0,0.59 0.09,1.1 0.26,1.53 0.17,0.43 0.41,0.79 0.7,1.06 0.29,0.28 0.63,0.48 1.02,0.61 0.39,0.13 0.8,0.2 1.23,0.2 0.68,0 1.29,-0.15 1.81,-0.44 0.52,-0.29 0.89,-0.68 1.1,-1.16 h 0.04 v 1.37 h 1.68 v -8.92 z m -19.17,6.81 c -0.6,-0.28 -1.11,-0.65 -1.54,-1.13 -0.43,-0.48 -0.76,-1.03 -1,-1.67 -0.24,-0.64 -0.36,-1.32 -0.36,-2.05 0,-0.69 0.12,-1.34 0.37,-1.95 0.25,-0.61 0.59,-1.14 1.03,-1.59 0.44,-0.45 0.95,-0.81 1.54,-1.07 0.59,-0.26 1.24,-0.4 1.93,-0.4 0.69,0 1.36,0.13 1.96,0.4 0.6,0.26 1.12,0.62 1.55,1.07 0.44,0.45 0.77,0.99 1.02,1.6 0.24,0.62 0.37,1.27 0.37,1.98 0,0.71 -0.12,1.41 -0.36,2.05 -0.24,0.64 -0.57,1.19 -1,1.67 -0.43,0.47 -0.95,0.84 -1.55,1.11 -0.6,0.27 -1.27,0.4 -1.99,0.4 -0.72,0 -1.38,-0.14 -1.98,-0.41 m 9.68,0.53 h -3.93 v -0.04 c 0.49,-0.22 0.92,-0.53 1.3,-0.9 0.38,-0.37 0.7,-0.8 0.95,-1.28 0.26,-0.48 0.45,-0.99 0.58,-1.53 0.13,-0.55 0.2,-1.1 0.2,-1.67 0,-0.95 -0.18,-1.83 -0.53,-2.64 -0.35,-0.81 -0.84,-1.51 -1.45,-2.11 -0.61,-0.6 -1.32,-1.06 -2.14,-1.4 -0.82,-0.34 -1.69,-0.51 -2.63,-0.51 -0.94,0 -1.87,0.17 -2.7,0.52 -0.83,0.35 -1.55,0.82 -2.17,1.44 -0.62,0.62 -1.1,1.34 -1.45,2.17 -0.35,0.83 -0.52,1.74 -0.52,2.72 0,0.98 0.18,1.9 0.54,2.74 0.36,0.83 0.85,1.55 1.48,2.15 0.63,0.6 1.35,1.07 2.19,1.41 0.83,0.34 1.72,0.51 2.65,0.51 h 7.62 v -1.58 z"
       id="path46" />
    <path
       class="cls-5"
       d="m 283.62,63.59 c -44.38,0 -80.48,36.1 -80.48,80.48 0,44.38 36.1,80.48 80.48,80.48 8.71,0 17.09,-1.41 24.97,-3.96 -3.29,-3.92 -5.26,-8.95 -5.26,-14.48 0,-12.47 10.12,-22.59 22.59,-22.59 8.51,0 15.95,4.73 19.78,11.7 11.46,-13.91 18.37,-31.74 18.37,-51.12 0,-44.41 -36.1,-80.51 -80.45,-80.51 m 0,129.75 c -27.18,0 -49.31,-22.12 -49.31,-49.27 0,-27.15 22.12,-49.31 49.31,-49.31 27.19,0 49.31,22.12 49.31,49.31 0,27.19 -22.16,49.27 -49.31,49.27"
       id="path48" />
    <path
       class="cls-1"
       d="m 339.2,202.93 c 0.21,0.87 0.32,1.76 0.36,2.66 0.03,0.9 -0.02,1.79 -0.17,2.68 -0.14,0.89 -0.37,1.75 -0.69,2.59 -0.31,0.84 -0.71,1.64 -1.18,2.41 -0.47,0.76 -1.01,1.47 -1.62,2.13 -0.61,0.66 -1.28,1.25 -2.01,1.77 -0.73,0.52 -1.5,0.97 -2.32,1.35 -0.82,0.37 -1.66,0.66 -2.53,0.87 -0.87,0.21 -1.76,0.32 -2.66,0.36 -0.9,0.03 -1.79,-0.02 -2.67,-0.17 -0.89,-0.14 -1.75,-0.37 -2.59,-0.69 -0.84,-0.31 -1.64,-0.71 -2.41,-1.18 -0.77,-0.47 -1.47,-1.01 -2.13,-1.63 -0.66,-0.61 -1.25,-1.28 -1.77,-2.01 -0.53,-0.73 -0.97,-1.5 -1.35,-2.32 -0.37,-0.82 -0.66,-1.66 -0.87,-2.54 -0.21,-0.87 -0.32,-1.76 -0.36,-2.66 -0.03,-0.9 0.02,-1.79 0.17,-2.68 0.14,-0.89 0.37,-1.75 0.69,-2.59 0.31,-0.84 0.71,-1.64 1.18,-2.41 0.47,-0.76 1.01,-1.48 1.62,-2.13 0.61,-0.66 1.28,-1.25 2.01,-1.77 0.73,-0.53 1.5,-0.97 2.32,-1.35 0.82,-0.37 1.66,-0.66 2.54,-0.87 0.87,-0.21 1.76,-0.32 2.65,-0.36 0.9,-0.03 1.79,0.02 2.67,0.17 0.89,0.14 1.75,0.37 2.59,0.69 0.84,0.31 1.64,0.71 2.41,1.18 0.76,0.47 1.47,1.01 2.13,1.63 0.66,0.61 1.25,1.28 1.77,2.01 0.53,0.73 0.97,1.5 1.35,2.32 0.37,0.82 0.66,1.66 0.87,2.54"
       id="path50" />
  </g>
</svg>
