<svg xmlns="http://www.w3.org/2000/svg" xmlns:xlink="http://www.w3.org/1999/xlink" width="258.292" height="47.48" viewBox="0 0 258.292 47.48">
    <defs>
        <clipPath id="a">
            <path d="M419.076-172.316H457.6l-38.52-38.538Z" transform="translate(-419.076 210.854)" fill="none" />
        </clipPath>
        <clipPath id="b">
            <rect width="25.063" height="25.063" fill="none" />
        </clipPath>
        <clipPath id="c">
            <rect width="32.719" height="32.719" fill="none" />
        </clipPath>
        <clipPath id="d">
            <rect width="37.429" height="37.428" fill="none" />
        </clipPath>
        <clipPath id="e">
            <rect width="44.572" height="44.572" fill="none" />
        </clipPath>
        <clipPath id="f">
            <rect width="48.671" height="48.671" fill="none" />
        </clipPath>
        <clipPath id="g">
            <path d="M426.6-218.413l38.538,38.538v-38.538Z" transform="translate(-426.605 218.413)" fill="none" />
        </clipPath>
        <clipPath id="k">
            <rect width="44.572" height="44.571" fill="none" />
        </clipPath>
    </defs>
    <g transform="translate(-415.392 222.193)">
        <path d="M535.626-189.277a14.185,14.185,0,0,1-1.347,6.343,13.133,13.133,0,0,1-3.649,4.553,15.905,15.905,0,0,1-5.386,2.745,22.9,22.9,0,0,1-6.59.922,23.508,23.508,0,0,1-4.411-.39,25.072,25.072,0,0,1-3.6-.939,15.677,15.677,0,0,1-2.6-1.152,7.5,7.5,0,0,1-1.506-1.063,2.664,2.664,0,0,1-.656-1.329,12.2,12.2,0,0,1-.194-2.5q0-1.1.071-1.843a5.306,5.306,0,0,1,.23-1.205,1.323,1.323,0,0,1,.426-.655,1.015,1.015,0,0,1,.62-.2,2.953,2.953,0,0,1,1.4.584,24.243,24.243,0,0,0,2.321,1.293,20.853,20.853,0,0,0,3.384,1.293,15.992,15.992,0,0,0,4.553.585,10.541,10.541,0,0,0,3.047-.407,6.793,6.793,0,0,0,2.284-1.152,4.865,4.865,0,0,0,1.435-1.843,5.858,5.858,0,0,0,.5-2.443,4.287,4.287,0,0,0-.851-2.676,8.427,8.427,0,0,0-2.214-1.984,23.009,23.009,0,0,0-3.1-1.629q-1.736-.761-3.579-1.612a32.933,32.933,0,0,1-3.579-1.931,14.5,14.5,0,0,1-3.1-2.587,12.176,12.176,0,0,1-2.215-3.561,12.847,12.847,0,0,1-.85-4.925,13.023,13.023,0,0,1,1.222-5.794,11.879,11.879,0,0,1,3.295-4.145,14.014,14.014,0,0,1,4.889-2.462,21.382,21.382,0,0,1,5.971-.815,21.512,21.512,0,0,1,3.26.248,22.243,22.243,0,0,1,3.048.673,16.98,16.98,0,0,1,2.516.958,5.914,5.914,0,0,1,1.453.885,2.583,2.583,0,0,1,.477.6,2.877,2.877,0,0,1,.213.656,6.648,6.648,0,0,1,.124,1.027q.037.622.036,1.541,0,1.03-.055,1.737a6.384,6.384,0,0,1-.176,1.17,1.4,1.4,0,0,1-.355.672.875.875,0,0,1-.619.213,2.964,2.964,0,0,1-1.241-.5q-.849-.5-2.091-1.081a19.882,19.882,0,0,0-2.869-1.063,12.68,12.68,0,0,0-3.579-.478,8.54,8.54,0,0,0-2.657.372,5.493,5.493,0,0,0-1.9,1.028,4.04,4.04,0,0,0-1.134,1.577,5.145,5.145,0,0,0-.372,1.948,4.3,4.3,0,0,0,.832,2.641,8,8,0,0,0,2.232,1.983,24.082,24.082,0,0,0,3.171,1.63q1.772.763,3.613,1.613a35.563,35.563,0,0,1,3.616,1.929,14.549,14.549,0,0,1,3.153,2.589,12.041,12.041,0,0,1,2.232,3.542,12.4,12.4,0,0,1,.85,4.8" transform="translate(-36.187 0)" fill="#fff" />
        <path d="M560.713-176.664a.987.987,0,0,1-.23.638,1.623,1.623,0,0,1-.762.461,7.393,7.393,0,0,1-1.418.282,19.53,19.53,0,0,1-2.268.107,19.647,19.647,0,0,1-2.249-.107,7.436,7.436,0,0,1-1.435-.282,1.632,1.632,0,0,1-.763-.461.99.99,0,0,1-.23-.638v-43.3a.989.989,0,0,1,.23-.637,1.626,1.626,0,0,1,.78-.461,8.044,8.044,0,0,1,1.435-.284,19.388,19.388,0,0,1,2.232-.106,19.754,19.754,0,0,1,2.268.106,7.567,7.567,0,0,1,1.418.284,1.611,1.611,0,0,1,.762.461.986.986,0,0,1,.23.637Z" transform="translate(-44.798 -0.14)" fill="#fff" />
        <path d="M611.417-214.248a15.361,15.361,0,0,1-.087,1.771,5.606,5.606,0,0,1-.249,1.188,1.338,1.338,0,0,1-.39.62.869.869,0,0,1-.549.177,3.454,3.454,0,0,1-1.488-.638,22.223,22.223,0,0,0-2.729-1.382,29.51,29.51,0,0,0-4.057-1.381,21.04,21.04,0,0,0-5.473-.639,15.18,15.18,0,0,0-6.025,1.152,13.1,13.1,0,0,0-4.607,3.26,14.534,14.534,0,0,0-2.939,5.067,19.8,19.8,0,0,0-1.027,6.537,20.979,20.979,0,0,0,1.044,6.928,14.063,14.063,0,0,0,2.922,5.013,12.06,12.06,0,0,0,4.519,3.047,15.925,15.925,0,0,0,5.828,1.029,13.6,13.6,0,0,0,3.082-.355,11.272,11.272,0,0,0,2.836-1.064v-10.63h-8.68q-.64,0-.993-.8a7.311,7.311,0,0,1-.355-2.71,13.382,13.382,0,0,1,.088-1.666,4.164,4.164,0,0,1,.266-1.079,1.513,1.513,0,0,1,.425-.6.889.889,0,0,1,.568-.2h15.483a2.464,2.464,0,0,1,1.009.2,2.177,2.177,0,0,1,.78.584,2.683,2.683,0,0,1,.515.938,4.138,4.138,0,0,1,.177,1.259v18.249a4.363,4.363,0,0,1-.372,1.859,2.656,2.656,0,0,1-1.523,1.259q-1.153.46-2.853.957t-3.526.851q-1.823.353-3.684.53t-3.738.178a28.664,28.664,0,0,1-9.834-1.578,19.913,19.913,0,0,1-7.352-4.569,19.866,19.866,0,0,1-4.607-7.3,27.966,27.966,0,0,1-1.594-9.761,28.329,28.329,0,0,1,1.7-10.116,21.405,21.405,0,0,1,4.818-7.619,20.873,20.873,0,0,1,7.531-4.8,27.693,27.693,0,0,1,9.832-1.664,33.069,33.069,0,0,1,5.421.407,30.639,30.639,0,0,1,4.27.992,16.885,16.885,0,0,1,3.03,1.259,7.614,7.614,0,0,1,1.682,1.169,2.94,2.94,0,0,1,.692,1.4,12.653,12.653,0,0,1,.211,2.675" transform="translate(-48.732 -0.008)" fill="#fff" />
        <path d="M685.613-176.614a1.1,1.1,0,0,1-.195.638,1.38,1.38,0,0,1-.709.461,6.928,6.928,0,0,1-1.363.282,17.852,17.852,0,0,1-2.162.107,17.5,17.5,0,0,1-2.126-.107,6.537,6.537,0,0,1-1.346-.282,1.491,1.491,0,0,1-.708-.461,1.036,1.036,0,0,1-.213-.638v-37.311h-.071l-13.286,37.276a1.739,1.739,0,0,1-.461.762,2.26,2.26,0,0,1-.868.478,5.878,5.878,0,0,1-1.4.23c-.567.036-1.254.054-2.056.054a19.955,19.955,0,0,1-2.055-.089,6.182,6.182,0,0,1-1.4-.282,2.663,2.663,0,0,1-.868-.479,1.374,1.374,0,0,1-.424-.673l-12.827-37.276H641v37.311a1.1,1.1,0,0,1-.194.638,1.389,1.389,0,0,1-.727.461,7.333,7.333,0,0,1-1.364.282,17.411,17.411,0,0,1-2.144.107,17.477,17.477,0,0,1-2.125-.107,6.91,6.91,0,0,1-1.364-.282,1.379,1.379,0,0,1-.71-.461,1.1,1.1,0,0,1-.193-.638v-40.853a3.744,3.744,0,0,1,.957-2.765,3.449,3.449,0,0,1,2.551-.956h6.094a12.864,12.864,0,0,1,2.8.265,5.455,5.455,0,0,1,2.021.886,5.04,5.04,0,0,1,1.418,1.63,11.877,11.877,0,0,1,.991,2.5l9.922,27.319h.141l10.276-27.247a14.381,14.381,0,0,1,1.01-2.516,5.858,5.858,0,0,1,1.276-1.665,4.233,4.233,0,0,1,1.718-.9,9,9,0,0,1,2.3-.265h6.273a4.885,4.885,0,0,1,1.647.247,2.8,2.8,0,0,1,1.133.726,3.159,3.159,0,0,1,.673,1.169,4.986,4.986,0,0,1,.23,1.578Z" transform="translate(-60.034 -0.189)" fill="#fff" />
        <path d="M725.9-212.486h-.034L719.379-193h13Zm21.047,33.625a12.354,12.354,0,0,1,.531,2.02,1.218,1.218,0,0,1-.282,1.116,2.306,2.306,0,0,1-1.383.461q-.992.089-2.728.089-1.806,0-2.816-.054a7.03,7.03,0,0,1-1.542-.213,1.411,1.411,0,0,1-.744-.442,2.438,2.438,0,0,1-.355-.745l-3.083-9.213h-17.22l-2.9,8.965a2.89,2.89,0,0,1-.372.833,1.528,1.528,0,0,1-.744.531,5.39,5.39,0,0,1-1.453.266q-.939.069-2.463.071a23.109,23.109,0,0,1-2.55-.108,1.941,1.941,0,0,1-1.277-.513,1.39,1.39,0,0,1-.247-1.152,11.484,11.484,0,0,1,.532-1.985l14.137-40.676a3.573,3.573,0,0,1,.5-.975,1.763,1.763,0,0,1,.9-.566,7.117,7.117,0,0,1,1.72-.248q1.1-.052,2.905-.053,2.091,0,3.33.053a8.847,8.847,0,0,1,1.932.248,1.855,1.855,0,0,1,.992.584,3.433,3.433,0,0,1,.513,1.063Z" transform="translate(-73.816 -0.14)" fill="#fff" />
        <rect width="47.354" height="47.48" transform="translate(415.392 -222.193)" fill="#fff" />
        <path d="M427.359-212.367a2.267,2.267,0,0,1-2.267,2.267,2.267,2.267,0,0,1-2.267-2.267,2.267,2.267,0,0,1,2.267-2.267,2.267,2.267,0,0,1,2.267,2.267" transform="translate(-3.025 -3.025)" fill="#e85200" />
        <path d="M476.493-163.223a2.271,2.271,0,0,1-2.267,2.276,2.271,2.271,0,0,1-2.267-2.276,2.271,2.271,0,0,1,2.267-2.276,2.272,2.272,0,0,1,2.267,2.276" transform="translate(-22.689 -22.69)" fill="#e85200" />
        <path d="M484.053-155.68a2.269,2.269,0,0,1-2.267,2.27,2.269,2.269,0,0,1-2.267-2.27,2.269,2.269,0,0,1,2.267-2.27,2.269,2.269,0,0,1,2.267,2.27" transform="translate(-25.715 -25.711)" fill="#e85200" />
        <path d="M419.075-210.854v38.538H457.6Z" transform="translate(-1.525 -4.538)" fill="#a3a3a3" />
        <g transform="translate(417.551 -215.392)">
            <g transform="translate(0 0)" clip-path="url(#a)">
                <path d="M459.009-205.141a6.639,6.639,0,0,0-1.808-3.8c-2.057-2.057-5.441-2.4-9.262-1.3A6.051,6.051,0,0,0,446.6-215.5c-1.554-1.553-4.142-1.8-7.128-.941a5.44,5.44,0,0,0-1.485-3.669c-1.519-1.519-3.95-1.843-6.673-1.147a3.293,3.293,0,0,0-.849-2.467c-2.08-2.08-7.311-.221-11.684,4.152s-6.232,9.6-4.152,11.683a3.293,3.293,0,0,0,2.467.85c-.7,2.724-.371,5.154,1.148,6.673a5.438,5.438,0,0,0,3.669,1.485c-.856,2.986-.613,5.573.941,7.127a6.052,6.052,0,0,0,5.253,1.338c-1.1,3.822-.756,7.205,1.3,9.263a6.637,6.637,0,0,0,3.8,1.807c-.67,3.158-.271,5.822,1.385,7.478,4.165,4.165,14.68.4,23.487-8.4s12.57-19.323,8.4-23.488c-1.656-1.657-4.319-2.055-7.478-1.385" transform="translate(-416.956 216.345)" fill="#fff" />
                <g transform="translate(-6.94 -11.991)">
                    <g clip-path="url(#b)">
                        <path d="M426.313-212.038c4.373-4.373,6.232-9.6,4.152-11.683s-7.31-.221-11.683,4.152-6.232,9.6-4.152,11.683,7.31.221,11.683-4.152" transform="translate(-410.016 228.336)" fill="#3d9dc0" />
                    </g>
                </g>
                <g transform="translate(-5.199 -10.25)">
                    <g clip-path="url(#c)">
                        <path d="M435.736-202.615c5.452-5.452,7.347-12.4,4.233-15.511s-10.059-1.219-15.511,4.233-7.347,12.4-4.233,15.511,10.059,1.219,15.511-4.233" transform="translate(-413.737 224.614)" fill="#008fb5" />
                    </g>
                </g>
                <g transform="translate(-0.942 -5.993)">
                    <g clip-path="url(#d)">
                        <path d="M445.824-192.527c6.557-6.557,9.19-14.556,5.88-17.866s-11.309-.678-17.866,5.88-9.19,14.556-5.88,17.866,11.308.678,17.866-5.88" transform="translate(-421.116 217.235)" fill="#0081aa" />
                    </g>
                </g>
                <g transform="translate(4.064 -0.987)">
                    <g clip-path="url(#e)">
                        <path d="M460-178.354c7.675-7.675,10.52-17.273,6.355-21.438s-13.763-1.32-21.437,6.355S434.395-176.165,438.56-172s13.763,1.32,21.438-6.355" transform="translate(-430.17 208.181)" fill="#0075a0" />
                    </g>
                </g>
                <g transform="translate(9.25 4.199)">
                    <g clip-path="url(#f)">
                        <path d="M470.84-167.511c8.807-8.807,12.569-19.322,8.4-23.488s-14.68-.4-23.487,8.4-12.57,19.322-8.4,23.487,14.681.4,23.488-8.4" transform="translate(-438.963 199.388)" fill="#006a96" />
                    </g>
                </g>
            </g>
        </g>
        <path d="M465.142-179.875v-38.538H426.6Z" transform="translate(-4.538 -1.513)" fill="#a3a3a3" />
        <g transform="translate(422.067 -219.926)">
            <g transform="translate(0 0)" clip-path="url(#g)">
                <path d="M458.116-204.248a6.639,6.639,0,0,0-1.808-3.8c-2.057-2.057-5.441-2.4-9.263-1.3a6.051,6.051,0,0,0-1.338-5.254c-1.554-1.553-4.141-1.8-7.128-.941a5.44,5.44,0,0,0-1.485-3.669c-1.519-1.519-3.95-1.843-6.673-1.147a3.293,3.293,0,0,0-.849-2.467c-2.08-2.08-7.311-.221-11.684,4.152s-6.232,9.6-4.152,11.683a3.293,3.293,0,0,0,2.467.85c-.7,2.724-.371,5.154,1.148,6.673a5.438,5.438,0,0,0,3.669,1.485c-.857,2.986-.613,5.573.941,7.127,1.217,1.218,3.071,1.628,5.253,1.338-1.1,3.822-.756,7.205,1.3,9.262a6.636,6.636,0,0,0,3.8,1.807c-.67,3.158-.271,5.822,1.385,7.478,4.165,4.165,14.68.4,23.487-8.4s12.57-19.323,8.4-23.488c-1.656-1.657-4.319-2.055-7.478-1.385" transform="translate(-421.114 220.521)" fill="#fff" />
                <g transform="translate(-11.991 -6.922)">
                    <g clip-path="url(#b)">
                        <path d="M425.42-211.145c4.373-4.373,6.232-9.6,4.152-11.683s-7.31-.221-11.683,4.152-6.232,9.6-4.152,11.683,7.31.221,11.683-4.152" transform="translate(-409.123 227.442)" fill="#3d9dc0" />
                    </g>
                </g>
                <g transform="translate(-10.25 -5.18)">
                    <g clip-path="url(#c)">
                        <path d="M434.843-201.722c5.452-5.452,7.347-12.4,4.233-15.511s-10.059-1.219-15.511,4.233-7.347,12.4-4.233,15.511,10.059,1.219,15.511-4.233" transform="translate(-412.844 223.721)" fill="#008fb5" />
                    </g>
                </g>
                <g transform="translate(-5.993 -0.924)">
                    <g clip-path="url(#d)">
                        <path d="M444.931-191.634c6.557-6.557,9.19-14.556,5.88-17.866s-11.309-.678-17.866,5.88-9.19,14.556-5.88,17.866,11.308.678,17.866-5.88" transform="translate(-420.223 216.342)" fill="#0081aa" />
                    </g>
                </g>
                <g transform="translate(-0.987 4.082)">
                    <g clip-path="url(#k)">
                        <path d="M459.1-177.461c7.675-7.675,10.52-17.273,6.355-21.438s-13.763-1.32-21.438,6.355-10.52,17.272-6.355,21.438,13.763,1.32,21.438-6.355" transform="translate(-429.277 207.288)" fill="#0075a0" />
                    </g>
                </g>
                <g transform="translate(4.198 9.268)">
                    <g clip-path="url(#f)">
                        <path d="M469.947-166.618c8.807-8.807,12.569-19.322,8.4-23.488s-14.68-.4-23.487,8.4-12.57,19.322-8.4,23.487,14.681.4,23.488-8.4" transform="translate(-438.07 198.495)" fill="#006a96" />
                    </g>
                </g>
            </g>
        </g>
    </g>
</svg>